<svg width="121" height="30" viewBox="0 0 121 30" fill="none" xmlns="http://www.w3.org/2000/svg">
<path d="M14.3263 27.6307C19.3186 27.6307 23.3651 23.9033 23.3651 19.3059C23.3681 17.7048 22.8681 16.1375 21.9263 14.7956L21.6211 14.8201C20.216 17.7629 17.8994 19.6842 15.28 19.6842C14.0138 19.6842 12.2155 18.6809 10.3106 17.2667C9.47238 16.6448 8.61359 15.9432 7.77045 15.2125C7.55037 15.0224 7.33128 14.8297 7.11413 14.6364C7.10541 14.6286 7.09847 14.6192 7.09373 14.6089C7.08899 14.5985 7.08655 14.5874 7.08655 14.5761C7.08655 14.5649 7.08899 14.5537 7.09373 14.5434C7.09847 14.533 7.10541 14.5236 7.11413 14.5158C7.3316 14.322 7.55037 14.1298 7.77045 13.9393C8.61359 13.2086 9.47238 12.507 10.3106 11.8851C12.2155 10.4709 14.0138 9.46761 15.28 9.46761C17.9365 9.46761 20.284 11.4456 21.6827 14.4618C21.6851 14.4673 21.6883 14.4725 21.692 14.4772C21.7004 14.488 21.7114 14.4968 21.7242 14.5028C21.7369 14.5089 21.751 14.512 21.7654 14.512C21.7797 14.512 21.7938 14.5089 21.8066 14.5028C21.8193 14.4968 21.8303 14.488 21.8387 14.4772C22.8358 13.1099 23.3675 11.4965 23.3651 9.84589C23.3651 5.24854 19.3201 1.52114 14.3278 1.51978" stroke="#609AFE" stroke-width="2.79488" stroke-miterlimit="10" stroke-linecap="round" stroke-linejoin="round"/>
<path d="M10.516 1.51978H8.14874C4.75288 1.51978 2 4.27266 2 7.66851V7.97595" stroke="#5FB697" stroke-width="2.79488" stroke-linecap="round" stroke-linejoin="round"/>
<path d="M2 21.1957L2 21.5031C2 24.899 4.75288 27.6519 8.14874 27.6519L10.516 27.6519" stroke="#FF9F9F" stroke-width="2.79488" stroke-linecap="round" stroke-linejoin="round"/>
<path d="M2 11.7881L2 17.322" stroke="#FFCE6C" stroke-width="2.79488" stroke-linecap="round"/>
<path d="M48.8758 14.1975C49.6803 14.3475 50.3417 14.7498 50.8598 15.4043C51.3779 16.0588 51.637 16.8087 51.637 17.6541C51.637 18.4177 51.4461 19.0927 51.0643 19.679C50.6962 20.2517 50.1576 20.7016 49.4485 21.0289C48.7395 21.3561 47.9009 21.5198 46.9328 21.5198H40.7764V7.24346H46.6669C47.635 7.24346 48.4668 7.40026 49.1622 7.71388C49.8712 8.0275 50.403 8.46383 50.7575 9.02288C51.1257 9.58194 51.3098 10.216 51.3098 10.925C51.3098 11.7568 51.0848 12.4522 50.6348 13.0113C50.1985 13.5703 49.6122 13.9657 48.8758 14.1975ZM43.6398 13.134H46.2578C46.9396 13.134 47.4646 12.984 47.8327 12.684C48.2009 12.3704 48.385 11.9272 48.385 11.3545C48.385 10.7819 48.2009 10.3387 47.8327 10.0251C47.4646 9.71147 46.9396 9.55467 46.2578 9.55467H43.6398V13.134ZM46.5237 19.1881C47.2191 19.1881 47.7577 19.0245 48.1395 18.6972C48.535 18.37 48.7327 17.9064 48.7327 17.3064C48.7327 16.6928 48.5281 16.2156 48.1191 15.8747C47.71 15.5202 47.1578 15.3429 46.4624 15.3429H43.6398V19.1881H46.5237ZM67.9909 10.0251C69.3818 10.0251 70.4999 10.4546 71.3453 11.3136C72.2043 12.159 72.6338 13.3453 72.6338 14.8725V21.5198H69.7704V15.2611C69.7704 14.3748 69.5454 13.6998 69.0954 13.2362C68.6454 12.759 68.0318 12.5204 67.2546 12.5204C66.4774 12.5204 65.857 12.759 65.3934 13.2362C64.9434 13.6998 64.7184 14.3748 64.7184 15.2611V21.5198H61.855V15.2611C61.855 14.3748 61.63 13.6998 61.18 13.2362C60.7301 12.759 60.1165 12.5204 59.3392 12.5204C58.5484 12.5204 57.9212 12.759 57.4575 13.2362C57.0076 13.6998 56.7826 14.3748 56.7826 15.2611V21.5198H53.9191V10.1887H56.7826V11.5591C57.1507 11.0818 57.6212 10.7069 58.1939 10.4342C58.7802 10.1614 59.4211 10.0251 60.1165 10.0251C61.0028 10.0251 61.7936 10.216 62.489 10.5978C63.1844 10.9659 63.723 11.4977 64.1048 12.1931C64.473 11.5386 65.0048 11.0137 65.7002 10.6182C66.4092 10.2228 67.1728 10.0251 67.9909 10.0251ZM74.6147 15.8133C74.6147 14.668 74.8397 13.6521 75.2897 12.7658C75.7533 11.8795 76.3737 11.1977 77.1509 10.7205C77.9418 10.2433 78.8213 10.0046 79.7894 10.0046C80.6348 10.0046 81.3711 10.1751 81.9983 10.516C82.6392 10.8569 83.1505 11.2864 83.5323 11.8045V10.1887H86.4162V21.5198H83.5323V19.8631C83.1642 20.3949 82.6528 20.838 81.9983 21.1925C81.3575 21.5334 80.6143 21.7039 79.7689 21.7039C78.8144 21.7039 77.9418 21.4584 77.1509 20.9675C76.3737 20.4767 75.7533 19.7881 75.2897 18.9018C74.8397 18.0018 74.6147 16.9724 74.6147 15.8133ZM83.5323 15.8542C83.5323 15.1588 83.396 14.5657 83.1233 14.0748C82.8505 13.5703 82.4824 13.1885 82.0188 12.9294C81.5552 12.6567 81.0575 12.5204 80.5257 12.5204C79.9939 12.5204 79.503 12.6499 79.0531 12.909C78.6031 13.1681 78.2349 13.5499 77.9486 14.0544C77.6759 14.5452 77.5395 15.1316 77.5395 15.8133C77.5395 16.4951 77.6759 17.0951 77.9486 17.6132C78.2349 18.1177 78.6031 18.5063 79.0531 18.779C79.5167 19.0518 80.0076 19.1881 80.5257 19.1881C81.0575 19.1881 81.5552 19.0586 82.0188 18.7995C82.4824 18.5268 82.8505 18.145 83.1233 17.6541C83.396 17.1496 83.5323 16.5497 83.5323 15.8542ZM92.5467 12.5408V18.0223C92.5467 18.4041 92.6354 18.6836 92.8126 18.8609C93.0035 19.0245 93.3171 19.1063 93.7535 19.1063H95.0829V21.5198H93.283C90.8696 21.5198 89.6628 20.3471 89.6628 18.0018V12.5408H88.3129V10.1887H89.6628V7.38663H92.5467V10.1887H95.0829V12.5408H92.5467ZM96.4061 15.8542C96.4061 14.6816 96.6448 13.6589 97.122 12.7863C97.5993 11.9 98.2606 11.2182 99.106 10.741C99.9514 10.2501 100.919 10.0046 102.01 10.0046C103.415 10.0046 104.574 10.3592 105.487 11.0682C106.415 11.7636 107.035 12.7454 107.349 14.0135H104.26C104.097 13.5226 103.817 13.1408 103.422 12.8681C103.04 12.5817 102.563 12.4386 101.99 12.4386C101.172 12.4386 100.524 12.7385 100.047 13.3385C99.5696 13.9248 99.331 14.7634 99.331 15.8542C99.331 16.9314 99.5696 17.77 100.047 18.37C100.524 18.9563 101.172 19.2495 101.99 19.2495C103.149 19.2495 103.906 18.7313 104.26 17.695H107.349C107.035 18.9222 106.415 19.8972 105.487 20.6198C104.56 21.3425 103.401 21.7039 102.01 21.7039C100.919 21.7039 99.9514 21.4652 99.106 20.988C98.2606 20.4971 97.5993 19.8153 97.122 18.9427C96.6448 18.0564 96.4061 17.0269 96.4061 15.8542ZM115.828 10.0251C116.687 10.0251 117.45 10.216 118.118 10.5978C118.787 10.9659 119.305 11.5182 119.673 12.2545C120.055 12.9772 120.246 13.8498 120.246 14.8725V21.5198H117.382V15.2611C117.382 14.3612 117.157 13.6726 116.707 13.1953C116.257 12.7045 115.644 12.459 114.866 12.459C114.076 12.459 113.448 12.7045 112.985 13.1953C112.535 13.6726 112.31 14.3612 112.31 15.2611V21.5198H109.446V6.38442H112.31V11.6C112.678 11.1091 113.169 10.7273 113.782 10.4546C114.396 10.1683 115.078 10.0251 115.828 10.0251Z" fill="#363232"/>
</svg>
